<svg width="36" height="36" viewBox="0 0 36 36" fill="none" xmlns="http://www.w3.org/2000/svg">
<rect width="36" height="36" rx="18" fill="white"/>
<path d="M17.9 25.24C16.7667 25.24 15.8133 25.06 15.04 24.7C14.2667 24.3267 13.68 23.8 13.28 23.12C12.8933 22.44 12.7 21.6333 12.7 20.7H15.7C15.7 21.38 15.8733 21.8867 16.22 22.22C16.5667 22.5533 17.1267 22.72 17.9 22.72C18.6333 22.72 19.18 22.56 19.54 22.24C19.9133 21.9067 20.1 21.44 20.1 20.84C20.1 20.2133 19.9133 19.74 19.54 19.42C19.18 19.1 18.6333 18.94 17.9 18.94H16.58V16.66H17.9C18.54 16.66 19.0333 16.5267 19.38 16.26C19.7267 15.98 19.9 15.5533 19.9 14.98C19.9 14.4867 19.7333 14.08 19.4 13.76C19.0667 13.44 18.5667 13.28 17.9 13.28C17.22 13.28 16.7133 13.4333 16.38 13.74C16.06 14.0467 15.9 14.5 15.9 15.1H12.9C12.9 14.18 13.08 13.4 13.44 12.76C13.8133 12.1067 14.3733 11.6133 15.12 11.28C15.8667 10.9333 16.7933 10.76 17.9 10.76C19.0067 10.76 19.9333 10.9267 20.68 11.26C21.4267 11.5933 21.98 12.0467 22.34 12.62C22.7133 13.1933 22.9 13.84 22.9 14.56C22.9 15.3467 22.68 16.0133 22.24 16.56C21.8133 17.0933 21.24 17.4733 20.52 17.7C21.3467 17.9267 21.98 18.3267 22.42 18.9C22.8733 19.46 23.1 20.1933 23.1 21.1C23.1 21.9 22.8867 22.6133 22.46 23.24C22.0467 23.8533 21.4533 24.34 20.68 24.7C19.9067 25.06 18.98 25.24 17.9 25.24Z" fill="#313131"/>
</svg>
