<svg width="36" height="36" viewBox="0 0 36 36" fill="none" xmlns="http://www.w3.org/2000/svg">
<rect width="36" height="36" rx="18" fill="white"/>
<path d="M12.6 25V22.82L17.5 18.6C18.1133 18.0533 18.6 17.6067 18.96 17.26C19.3333 16.9 19.6 16.56 19.76 16.24C19.92 15.92 20 15.5733 20 15.2C20 14.6267 19.84 14.1667 19.52 13.82C19.2133 13.46 18.74 13.28 18.1 13.28C17.3667 13.28 16.8 13.48 16.4 13.88C16 14.2667 15.8 14.9333 15.8 15.88H12.8C12.8 14.8267 13 13.92 13.4 13.16C13.8 12.3867 14.3933 11.7933 15.18 11.38C15.98 10.9667 16.9533 10.76 18.1 10.76C19.1667 10.76 20.0667 10.9533 20.8 11.34C21.5333 11.7133 22.08 12.2333 22.44 12.9C22.8133 13.5667 23 14.3333 23 15.2C23 15.84 22.8467 16.44 22.54 17C22.2467 17.56 21.8533 18.0933 21.36 18.6C20.8667 19.1067 20.3133 19.6133 19.7 20.12L16.82 22.52H23.2V25H12.6Z" fill="#313131"/>
</svg>
