<svg width="36" height="36" viewBox="0 0 36 36" fill="none" xmlns="http://www.w3.org/2000/svg">
<rect width="36" height="36" rx="18" fill="white"/>
<path d="M18 25.24C17.12 25.24 16.3667 25.1267 15.74 24.9C15.1133 24.6733 14.6 24.3667 14.2 23.98C13.8 23.5933 13.5 23.1533 13.3 22.66C13.1133 22.1667 13.0133 21.6467 13 21.1H16C16.04 21.58 16.22 21.9733 16.54 22.28C16.8733 22.5733 17.36 22.72 18 22.72C18.7333 22.72 19.28 22.5133 19.64 22.1C20.0133 21.6867 20.2 21.0667 20.2 20.24C20.2 19.6533 20.1 19.1867 19.9 18.84C19.7 18.48 19.4333 18.2267 19.1 18.08C18.7667 17.92 18.4 17.84 18 17.84C17.5333 17.84 17.1467 17.9267 16.84 18.1C16.5333 18.26 16.2867 18.4867 16.1 18.78H13.3V11H22.42V13.48H16.3V16.04C16.58 15.7867 16.92 15.6067 17.32 15.5C17.72 15.3933 18.18 15.34 18.7 15.34C19.6067 15.34 20.3933 15.52 21.06 15.88C21.7267 16.24 22.2467 16.7867 22.62 17.52C23.0067 18.24 23.2 19.1467 23.2 20.24C23.2 21.24 22.98 22.12 22.54 22.88C22.1133 23.6267 21.5133 24.2067 20.74 24.62C19.9667 25.0333 19.0533 25.24 18 25.24Z" fill="#313131"/>
</svg>
