<svg width="36" height="36" viewBox="0 0 36 36" fill="none" xmlns="http://www.w3.org/2000/svg">
<rect width="36" height="36" rx="18" fill="white"/>
<path d="M18.5 25.24C16.7533 25.24 15.4 24.72 14.44 23.68C13.48 22.6267 13 20.9333 13 18.6V18.2C13 16.4133 13.24 14.98 13.72 13.9C14.2133 12.8067 14.8867 12.0133 15.74 11.52C16.6067 11.0133 17.5933 10.76 18.7 10.76C19.5667 10.76 20.32 10.88 20.96 11.12C21.6133 11.36 22.14 11.74 22.54 12.26C22.94 12.7667 23.1933 13.44 23.3 14.28H20.5C20.3667 13.9467 20.14 13.7 19.82 13.54C19.5133 13.3667 19.1067 13.28 18.6 13.28C18.0667 13.28 17.6 13.3933 17.2 13.62C16.8133 13.8333 16.4933 14.2267 16.24 14.8C16 15.3733 15.8533 16.2133 15.8 17.32C16.1467 16.7733 16.6333 16.3933 17.26 16.18C17.9 15.9667 18.5467 15.86 19.2 15.86C20.1467 15.86 20.94 16.0333 21.58 16.38C22.2333 16.7267 22.7333 17.2267 23.08 17.88C23.4267 18.5333 23.6 19.3267 23.6 20.26V20.48C23.6 21.4267 23.38 22.26 22.94 22.98C22.5133 23.6867 21.9133 24.24 21.14 24.64C20.3667 25.04 19.4867 25.24 18.5 25.24ZM18.3 22.72C19.02 22.72 19.58 22.52 19.98 22.12C20.3933 21.7067 20.6 21.18 20.6 20.54V20.34C20.6 19.7 20.3933 19.18 19.98 18.78C19.58 18.38 19.02 18.18 18.3 18.18C17.58 18.18 17.0133 18.38 16.6 18.78C16.2 19.18 16 19.7 16 20.34V20.54C16 21.18 16.2 21.7067 16.6 22.12C17.0133 22.52 17.58 22.72 18.3 22.72Z" fill="#313131"/>
</svg>
